<?xml version="1.0" standalone="no"?>
<!DOCTYPE svg PUBLIC "-//W3C//DTD SVG 20010904//EN"
 "http://www.w3.org/TR/2001/REC-SVG-20010904/DTD/svg10.dtd">
<svg version="1.0" xmlns="http://www.w3.org/2000/svg"
 width="64.000000pt" height="64.000000pt" viewBox="0 0 64.000000 64.000000"
 preserveAspectRatio="xMidYMid meet">
<metadata>
Created by potrace 1.15, written by Peter Selinger 2001-2017
</metadata>
<g transform="translate(0.000000,64.000000) scale(0.100000,-0.100000)"
fill="#000000" stroke="none">
<path d="M122 468 c-15 -15 -15 -61 0 -76 15 -15 48 -16 48 -2 0 6 -7 13 -15
16 -20 8 -19 40 1 48 9 3 27 6 40 6 l24 0 -30 -60 -30 -60 -46 0 c-39 0 -51
-5 -80 -34 -50 -50 -50 -122 0 -172 30 -30 40 -34 86 -34 46 0 56 4 86 34 30
30 34 40 34 84 0 39 -6 57 -25 80 -41 49 -29 50 20 2 37 -36 45 -51 45 -80 0
-43 14 -60 50 -60 30 0 50 17 50 42 0 10 5 18 10 18 6 0 10 -12 10 -26 0 -16
13 -39 34 -60 30 -30 40 -34 86 -34 46 0 56 4 86 34 30 30 34 40 34 86 0 46
-4 56 -34 86 -29 29 -41 34 -83 34 -44 0 -51 3 -67 31 -15 26 -16 35 -6 60 7
16 16 29 21 29 5 0 9 5 9 10 0 6 -18 10 -40 10 -22 0 -40 -4 -40 -10 0 -5 6
-10 14 -10 9 0 12 -7 9 -20 -5 -18 -14 -20 -94 -20 l-89 0 7 30 5 30 -59 0
c-32 0 -64 -5 -71 -12z m275 -82 c2 -2 -9 -30 -24 -64 -18 -42 -32 -62 -44
-62 -21 0 -119 107 -113 124 3 7 33 10 92 7 48 -1 88 -4 89 -5z m-262 -76 c3
-5 -1 -23 -10 -39 -19 -37 -19 -51 -2 -51 8 0 22 18 32 40 20 44 31 43 51 -6
12 -30 12 -39 -1 -69 -32 -78 -138 -78 -170 0 -14 31 -14 39 -1 70 18 43 86
80 101 55z m421 -5 c77 -32 77 -138 -1 -171 -33 -14 -40 -13 -73 3 -23 11 -41
30 -49 51 l-13 32 55 0 c62 0 66 7 36 57 -18 29 -17 35 7 42 1 1 18 -6 38 -14z"/>
</g>
</svg>
